<?xml version="1.0" standalone="no"?>
<!DOCTYPE svg PUBLIC "-//W3C//DTD SVG 20010904//EN"
 "http://www.w3.org/TR/2001/REC-SVG-20010904/DTD/svg10.dtd">
<svg version="1.0" xmlns="http://www.w3.org/2000/svg"
 width="70.000000pt" height="70.000000pt" viewBox="0 0 70.000000 70.000000"
 preserveAspectRatio="xMidYMid meet">
<metadata>
Created by potrace 1.11, written by Peter Selinger 2001-2013
</metadata>
<g transform="translate(0.000000,70.000000) scale(0.100000,-0.100000)"
fill="#000000" stroke="none">
<path d="M302 565 l-33 -55 -95 2 c-52 0 -98 -2 -102 -6 -3 -4 4 -26 17 -49
13 -23 35 -62 49 -87 l24 -45 -47 -78 c-27 -42 -45 -80 -41 -84 3 -4 46 -6 94
-5 48 1 92 -2 98 -6 6 -4 23 -28 38 -54 29 -51 54 -61 63 -28 3 11 8 20 12 20
4 0 15 16 26 35 18 35 19 36 79 34 101 -2 136 1 136 11 0 5 -16 34 -35 64 -19
30 -35 60 -35 66 0 5 -4 10 -8 10 -19 0 -6 39 35 106 24 39 43 77 43 83 0 11
-37 14 -137 11 -61 -2 -81 14 -113 88 -15 34 -32 26 -68 -33z m28 -40 c0 -15
-6 -25 -15 -25 -12 0 -13 4 -3 25 6 14 13 25 15 25 1 0 3 -11 3 -25z m60 -17
c0 -5 -7 -8 -15 -8 -10 0 -15 10 -15 27 0 26 1 26 15 7 8 -10 15 -22 15 -26z
m184 -37 c4 -5 3 -11 -1 -13 -9 -3 -83 -122 -83 -132 0 -9 -93 -151 -102 -154
-4 -2 -6 -7 -4 -11 3 -4 -6 -20 -20 -37 -16 -18 -27 -25 -30 -17 -3 7 -16 28
-29 47 -29 42 -125 205 -125 211 0 3 -16 29 -35 60 l-36 55 230 0 c128 0 232
-4 235 -9z m-377 -190 c10 -17 7 -22 -28 -45 -21 -15 -39 -24 -39 -21 0 10 45
85 50 85 3 0 11 -9 17 -19z m342 -22 c13 -22 21 -42 20 -43 -2 -2 -21 7 -41
20 -34 22 -37 26 -26 44 17 27 21 26 47 -21z m-299 -49 c12 -22 12 -21 -42
-24 -49 -3 -55 5 -17 25 43 23 46 23 59 -1z m270 0 c40 -22 40 -22 -22 -24
-53 -2 -52 -2 -38 25 13 23 16 23 60 -1z"/>
<path d="M339 449 c-1 -2 -3 -25 -4 -51 -1 -35 2 -48 12 -48 10 0 11 5 3 19
-7 14 -7 22 1 27 8 4 7 9 -2 15 -7 4 -10 12 -5 16 4 4 14 -1 22 -11 8 -11 14
-15 14 -9 0 10 -39 50 -41 42z"/>
<path d="M250 369 c0 -5 5 -7 10 -4 6 3 10 8 10 11 0 2 -4 4 -10 4 -5 0 -10
-5 -10 -11z"/>
<path d="M425 371 c-3 -5 -2 -12 3 -15 5 -3 9 1 9 9 0 17 -3 19 -12 6z"/>
<path d="M280 365 c0 -2 6 -8 13 -14 10 -8 14 -7 14 2 0 8 -6 14 -14 14 -7 0
-13 -1 -13 -2z"/>
<path d="M256 333 c-6 -14 -5 -15 5 -6 7 7 10 15 7 18 -3 3 -9 -2 -12 -12z"/>
<path d="M336 318 c-2 -7 -4 -21 -3 -32 0 -18 1 -18 14 0 16 21 16 31 3 39 -6
3 -12 0 -14 -7z"/>
<path d="M362 269 c-19 -17 -32 -32 -30 -34 5 -5 19 6 47 38 32 36 24 34 -17
-4z"/>
</g>
</svg>
